<svg width="191" height="41" viewBox="0 0 191 41" fill="none" xmlns="http://www.w3.org/2000/svg">
<mask id="mask0" mask-type="alpha" maskUnits="userSpaceOnUse" x="0" y="0" width="42" height="41">
<path d="M21 40.7895C32.2666 40.7895 41.4 31.6998 41.4 20.4871C41.4 9.27438 32.2666 0.184692 21 0.184692C9.73337 0.184692 0.599976 9.27438 0.599976 20.4871C0.599976 31.6998 9.73337 40.7895 21 40.7895Z" fill="#F50057"/>
</mask>
<g mask="url(#mask0)">
<path d="M21 40.7895C32.2666 40.7895 41.4 31.6998 41.4 20.4871C41.4 9.27438 32.2666 0.184692 21 0.184692C9.73337 0.184692 0.599976 9.27438 0.599976 20.4871C0.599976 31.6998 9.73337 40.7895 21 40.7895Z" fill="#F50057"/>
<path d="M-1 32.6772L-0.171585 29.4294L7.74073 27.4816L13.0749 24.5262L11.9368 24.1839L12.2132 21.9606L15.9784 21.8637L11.9607 19.731L11.9933 14.0026L18.3562 18.5323L11.9268 10.5056L13.0315 2.1784L22.4085 14.4692L14.1363 -2.618L19 -2.88776H23.3188L30.0124 15.6206L30.7937 14.6979L34.8372 17.321L37.7269 21.1279L37.5561 21.9581L38.9837 24.1408L39 25.3052L38.0956 26.1392L36.5455 26.6645L37.0775 25.7256L36.9067 24.8554L35.0683 23.3936L30.0746 21.4427L26.8169 24.0502L22.8073 26.1392L19.7606 27.1574L20.0979 28.791L21.5003 30.2715L24.2839 30.5239L25.1877 31.123L25.2894 32.0225L24.4893 31.3122L22.6516 31.1904L21.5154 31.7651L21.0318 32.4142L20.9903 31.6558L21.273 31.1055L17.1127 29.2539L9.40636 30.3034L4.40887 40.7895L1.34267 38.9504L5.34719 34.0003L0.492275 37.631L-0.807186 34.2677L4.21543 31.6015L-1 32.6772Z" fill="white"/>
</g>
<path d="M53.1668 27.1715H59.4175L59.0093 30.4392H48.6L50.8962 12.1273H55.0548L53.1668 27.1715ZM77.3731 30.4392H74.1584C73.8013 30.4392 73.5142 30.3575 73.2974 30.1941C73.0805 30.0308 72.9508 29.815 72.9083 29.5469L72.3343 26.254H66.0198L64.6421 29.5469C64.5485 29.7815 64.3657 29.9889 64.0935 30.169C63.8214 30.3491 63.5195 30.4392 63.1878 30.4392H59.9221L68.8007 12.1273H73.0614L77.3731 30.4392ZM67.1806 23.4638H71.8495L70.9438 18.2354C70.8672 17.7997 70.7843 17.3578 70.695 16.9095C70.6057 16.4612 70.5313 16.0527 70.4718 15.6841C70.4038 15.8852 70.3145 16.1135 70.2039 16.369C70.0934 16.6246 69.9849 16.8739 69.8786 17.1169C69.7723 17.3598 69.6703 17.5861 69.5725 17.7955C69.4747 18.005 69.4045 18.16 69.362 18.2606L67.1806 23.4638ZM84.1156 23.6021L83.261 30.4392H79.1278L81.3985 12.1273H87.0369C88.1765 12.1273 89.1481 12.2467 89.9518 12.4855C90.7554 12.7243 91.4124 13.0531 91.9227 13.4721C92.4329 13.891 92.805 14.3874 93.0389 14.9614C93.2727 15.5354 93.3897 16.1575 93.3897 16.8278C93.3897 17.5065 93.2982 18.1475 93.1154 18.7507C92.9325 19.354 92.6668 19.9091 92.3181 20.416C91.9694 20.923 91.5421 21.3712 91.0361 21.7608C90.5301 22.1505 89.9539 22.4709 89.3076 22.7223C89.5627 22.8647 89.8029 23.0365 90.0283 23.2376C90.2537 23.4387 90.4301 23.6901 90.5577 23.9917L93.2621 30.4392H89.5117C89.163 30.4392 88.8696 30.3722 88.6315 30.2381C88.3933 30.1041 88.2275 29.9114 88.134 29.66L86.1184 24.2431C86.0249 24.0085 85.8994 23.843 85.7421 23.7466C85.5848 23.6503 85.353 23.6021 85.0469 23.6021H84.1156ZM85.1744 15.1813L84.4728 20.7742H85.9909C86.5862 20.7742 87.0922 20.6842 87.5089 20.504C87.9256 20.3239 88.2636 20.083 88.523 19.7813C88.7824 19.4797 88.9695 19.1278 89.0843 18.7256C89.1991 18.3234 89.2565 17.9003 89.2565 17.4562C89.2565 17.1127 89.2055 16.8006 89.1035 16.5199C89.0014 16.2392 88.842 16.0004 88.6251 15.8035C88.4082 15.6066 88.1361 15.4537 87.8087 15.3447C87.4812 15.2358 87.0964 15.1813 86.6542 15.1813H85.1744ZM111.371 30.4392H108.156C107.799 30.4392 107.512 30.3575 107.295 30.1941C107.078 30.0308 106.948 29.815 106.906 29.5469L106.332 26.254H100.017L98.6397 29.5469C98.5461 29.7815 98.3633 29.9889 98.0912 30.169C97.819 30.3491 97.5171 30.4392 97.1854 30.4392H93.9198L102.798 12.1273H107.059L111.371 30.4392ZM101.178 23.4638H105.847L104.941 18.2354C104.865 17.7997 104.782 17.3578 104.693 16.9095C104.603 16.4612 104.529 16.0527 104.469 15.6841C104.401 15.8852 104.312 16.1135 104.202 16.369C104.091 16.6246 103.983 16.8739 103.876 17.1169C103.77 17.3598 103.668 17.5861 103.57 17.7955C103.472 18.005 103.402 18.16 103.36 18.2606L101.178 23.4638ZM128.204 30.4392H124.02L124.989 22.6469H118.279L117.31 30.4392H113.125L115.422 12.1273H119.606L118.636 19.8567H125.346L126.316 12.1273H130.5L128.204 30.4392ZM147.46 30.4392H144.246C143.889 30.4392 143.602 30.3575 143.385 30.1941C143.168 30.0308 143.038 29.815 142.996 29.5469L142.422 26.254H136.107L134.729 29.5469C134.636 29.7815 134.453 29.9889 134.181 30.169C133.909 30.3491 133.607 30.4392 133.275 30.4392H130.009L138.888 12.1273H143.149L147.46 30.4392ZM137.268 23.4638H141.937L141.031 18.2354C140.955 17.7997 140.872 17.3578 140.782 16.9095C140.693 16.4612 140.619 16.0527 140.559 15.6841C140.491 15.8852 140.402 16.1135 140.291 16.369C140.181 16.6246 140.072 16.8739 139.966 17.1169C139.86 17.3598 139.758 17.5861 139.66 17.7955C139.562 18.005 139.492 18.16 139.449 18.2606L137.268 23.4638ZM148.756 12.1273H152.022C152.379 12.1273 152.666 12.209 152.883 12.3723C153.1 12.5357 153.229 12.7515 153.272 13.0196L154.573 22.8857C154.607 23.1203 154.632 23.3612 154.649 23.6084C154.666 23.8555 154.683 24.0797 154.701 24.2808C154.718 24.5238 154.726 24.7584 154.726 24.9846C154.854 24.5908 154.988 24.22 155.128 23.8723C155.268 23.5246 155.398 23.1957 155.517 22.8857L159.318 13.0196C159.412 12.7934 159.591 12.5881 159.854 12.4038C160.118 12.2194 160.424 12.1273 160.773 12.1273H161.742C162.099 12.1273 162.391 12.209 162.616 12.3723C162.841 12.5357 162.975 12.7515 163.018 13.0196L164.447 22.8857C164.489 23.179 164.534 23.4994 164.58 23.8472C164.627 24.1949 164.668 24.5573 164.702 24.9343C164.812 24.5573 164.923 24.197 165.033 23.8535C165.144 23.5099 165.254 23.1873 165.365 22.8857L169.039 13.0196C169.124 12.785 169.305 12.5776 169.581 12.3975C169.857 12.2173 170.17 12.1273 170.519 12.1273H173.81L166.232 30.4392H162.456L160.747 18.8764C160.722 18.6921 160.692 18.4889 160.658 18.2669C160.624 18.0448 160.594 17.8123 160.569 17.5693C160.475 17.8123 160.384 18.0448 160.294 18.2669C160.205 18.4889 160.126 18.6921 160.058 18.8764L155.517 30.4392H151.766L148.756 12.1273ZM179.136 19.6179H179.749C180.046 19.6179 180.31 19.5698 180.54 19.4734C180.769 19.3771 180.956 19.2241 181.101 19.0147L185.515 12.9442C185.753 12.6174 186.025 12.3996 186.331 12.2906C186.637 12.1817 186.994 12.1273 187.403 12.1273H191L185.157 19.6054C184.962 19.8651 184.758 20.0788 184.545 20.2464C184.333 20.4139 184.111 20.5564 183.882 20.6737C184.171 20.791 184.426 20.9481 184.647 21.145C184.868 21.3419 185.055 21.6079 185.209 21.9431L189.138 30.4392H185.438C185.2 30.4392 184.998 30.4225 184.832 30.3889C184.666 30.3554 184.526 30.3073 184.411 30.2444C184.296 30.1816 184.201 30.102 184.124 30.0056C184.048 29.9093 183.984 29.8024 183.933 29.6851L181.05 23.2502C180.939 23.0072 180.78 22.8375 180.572 22.7412C180.363 22.6448 180.08 22.5966 179.723 22.5966H178.766L177.784 30.4392H173.651L175.922 12.1273H180.08L179.136 19.6179Z" fill="#263238"/>
</svg>
